<mxfile host="Electron" agent="Mozilla/5.0 (Windows NT 10.0; Win64; x64) AppleWebKit/537.36 (KHTML, like Gecko) draw.io/28.0.4 Chrome/138.0.7204.97 Electron/37.2.1 Safari/537.36" version="28.0.4">
  <diagram name="Page-1" id="BSw50wFvXUqgc6WfD_xZ">
    <mxGraphModel dx="1426" dy="969" grid="1" gridSize="10" guides="1" tooltips="1" connect="1" arrows="1" fold="1" page="1" pageScale="1" pageWidth="1169" pageHeight="827" math="0" shadow="0">
      <root>
        <mxCell id="0" />
        <mxCell id="1" parent="0" />
        <mxCell id="p-e7b0RVEyORJ4DRRR-j-5" style="edgeStyle=orthogonalEdgeStyle;rounded=0;orthogonalLoop=1;jettySize=auto;html=1;exitX=0.5;exitY=1;exitDx=0;exitDy=0;entryX=0.5;entryY=0;entryDx=0;entryDy=0;" edge="1" parent="1" source="p-e7b0RVEyORJ4DRRR-j-1" target="p-e7b0RVEyORJ4DRRR-j-3">
          <mxGeometry relative="1" as="geometry" />
        </mxCell>
        <mxCell id="p-e7b0RVEyORJ4DRRR-j-1" value="Bank statement&lt;div&gt;*.csv&lt;/div&gt;" style="rounded=1;whiteSpace=wrap;html=1;fillColor=#dae8fc;strokeColor=#6c8ebf;" vertex="1" parent="1">
          <mxGeometry x="490" y="90" width="110" height="50" as="geometry" />
        </mxCell>
        <mxCell id="p-e7b0RVEyORJ4DRRR-j-2" value="SQLite DB" style="shape=cylinder3;whiteSpace=wrap;html=1;boundedLbl=1;backgroundOutline=1;size=15;fillColor=#dae8fc;strokeColor=#6c8ebf;" vertex="1" parent="1">
          <mxGeometry x="515" y="289" width="60" height="80" as="geometry" />
        </mxCell>
        <mxCell id="p-e7b0RVEyORJ4DRRR-j-6" style="edgeStyle=orthogonalEdgeStyle;rounded=0;orthogonalLoop=1;jettySize=auto;html=1;exitX=0.5;exitY=1;exitDx=0;exitDy=0;entryX=0.5;entryY=0;entryDx=0;entryDy=0;" edge="1" parent="1" source="p-e7b0RVEyORJ4DRRR-j-3" target="p-e7b0RVEyORJ4DRRR-j-4">
          <mxGeometry relative="1" as="geometry" />
        </mxCell>
        <mxCell id="p-e7b0RVEyORJ4DRRR-j-3" value="Data cleaning" style="rounded=1;whiteSpace=wrap;html=1;fillColor=#d5e8d4;strokeColor=#82b366;" vertex="1" parent="1">
          <mxGeometry x="482.5" y="170" width="125" height="30" as="geometry" />
        </mxCell>
        <mxCell id="p-e7b0RVEyORJ4DRRR-j-4" value="Data mapping" style="rounded=1;whiteSpace=wrap;html=1;fillColor=#d5e8d4;strokeColor=#82b366;" vertex="1" parent="1">
          <mxGeometry x="482.5" y="226" width="125" height="30" as="geometry" />
        </mxCell>
        <mxCell id="p-e7b0RVEyORJ4DRRR-j-7" style="edgeStyle=orthogonalEdgeStyle;rounded=0;orthogonalLoop=1;jettySize=auto;html=1;exitX=0.5;exitY=1;exitDx=0;exitDy=0;entryX=0.5;entryY=0;entryDx=0;entryDy=0;entryPerimeter=0;" edge="1" parent="1" source="p-e7b0RVEyORJ4DRRR-j-4" target="p-e7b0RVEyORJ4DRRR-j-2">
          <mxGeometry relative="1" as="geometry" />
        </mxCell>
      </root>
    </mxGraphModel>
  </diagram>
</mxfile>
